<?xml version="1.0" standalone="no"?>
<!DOCTYPE svg PUBLIC "-//W3C//DTD SVG 20010904//EN"
 "http://www.w3.org/TR/2001/REC-SVG-20010904/DTD/svg10.dtd">
<svg version="1.0" xmlns="http://www.w3.org/2000/svg"
 width="512.000000pt" height="512.000000pt" viewBox="0 0 512.000000 512.000000"
 preserveAspectRatio="xMidYMid meet">

<g transform="translate(0.000000,512.000000) scale(0.100000,-0.100000)"
fill="#000000" stroke="none">
<path d="M1020 4012 l0 -39 86 -17 c169 -33 240 -88 317 -249 30 -62 301 -680
603 -1375 l548 -1263 40 3 40 3 521 1270 c286 699 539 1303 560 1344 50 91
143 195 204 226 26 13 73 31 104 40 57 16 57 17 57 56 l0 39 -445 0 -445 0 0
-40 c0 -35 3 -40 28 -45 66 -14 149 -38 173 -51 38 -19 96 -90 103 -125 8 -39
-17 -160 -54 -257 -33 -89 -717 -1768 -728 -1787 -7 -13 -751 1690 -806 1845
-39 111 -43 232 -10 277 37 50 113 80 247 98 l47 6 0 40 0 39 -595 0 -595 0 0
-38z"/>
</g>
</svg>
